<svg viewBox="-2 -2 24 24" xmlns="http://www.w3.org/2000/svg">
  <path d="M0 18.2346L3.67206 19.4118L4.97941 18.1037L2.51581 15.639L0 18.2346ZM19.4092 3.50257L17.0868 1.17904C16.6945 0.786396 16.1779 0.588234 15.6607 0.588234C15.1853 0.588234 14.7092 0.755513 14.3268 1.09301L4.58824 9.41029C4.39472 9.58112 4.25442 9.80401 4.18408 10.0524C4.11375 10.3007 4.11634 10.5641 4.19154 10.811L4.67132 12.3857L3.42316 13.6346C3.07868 13.979 3.07868 14.5375 3.42316 14.882L5.71213 17.1721C6.05662 17.5169 6.61581 17.5169 6.96029 17.1721L8.20515 15.9265L9.77574 16.4074C9.9032 16.4465 10.0358 16.4664 10.1691 16.4665C10.3599 16.4666 10.5485 16.426 10.7223 16.3475C10.8962 16.269 11.0514 16.1545 11.1776 16.0114L19.4956 6.26397C20.2 5.46544 20.1625 4.25625 19.4092 3.50257V3.50257ZM10.0287 14.639L8.72169 14.2386L7.70735 13.9279L6.95735 14.6783L6.3364 15.2996L5.29559 14.2585L5.91949 13.6342L6.66838 12.8849L6.35956 11.8713L5.96029 10.5603L7.36581 9.35993L11.2327 13.2287L10.0287 14.639ZM18.1533 5.11801L11.9985 12.3305L8.26324 8.59338L15.4941 2.41691C15.5415 2.375 15.5978 2.35368 15.6607 2.35368C15.7085 2.35368 15.7783 2.36654 15.8393 2.42757L18.1618 4.7511C18.2551 4.84522 18.2599 4.99669 18.1533 5.11801V5.11801Z"/>
</svg>
